<svg t="1611463749362" class="icon" viewBox="0 0 1024 1024" version="1.1" xmlns="http://www.w3.org/2000/svg" p-id="1304" width="200" height="200"><path d="M493.381818 193.861818a20.014545 20.014545 0 0 1 18.618182-10.705454 19.781818 19.781818 0 0 1 17.454545 10.705454l94.952728 192.698182 212.712727 30.952727a19.549091 19.549091 0 0 1 10.938182 33.28l-154.065455 150.109091 36.538182 211.781818a19.781818 19.781818 0 0 1-7.912727 19.083637 19.316364 19.316364 0 0 1-20.48 1.396363L512 733.323636l-191.301818 99.84a19.316364 19.316364 0 0 1-28.16-20.48l36.305454-211.781818-154.065454-150.109091A19.549091 19.549091 0 0 1 186.181818 417.512727l212.712727-30.952727z" fill="#D2A154" p-id="1305"></path></svg>