<svg t="1611463795033" class="icon" viewBox="0 0 1024 1024" version="1.1" xmlns="http://www.w3.org/2000/svg" p-id="1438" width="200" height="200"><path d="M465.995852 265.102222L398.348642 402.17916l-151.273877 21.997038a44.246914 44.246914 0 0 0-25.321876 12.894814l-1.769877 1.921581a44.246914 44.246914 0 0 0 2.566321 60.656197l109.466865 106.698272-25.840198 150.692345a44.246914 44.246914 0 0 0 4.449975 28.065186l1.226272 2.187061a44.246914 44.246914 0 0 0 58.532346 16.384L505.679012 732.526617l135.319704 71.149037a44.246914 44.246914 0 0 0 28.065185 4.449976l2.376692-0.480395a44.246914 44.246914 0 0 0 33.754074-50.61847l-25.85284-150.679703 109.479506-106.698272a44.246914 44.246914 0 0 0 12.894815-25.321876l0.290766-2.401976a44.246914 44.246914 0 0 0-37.711013-47.74874l-151.286518-21.997038-67.64721-137.076938a44.246914 44.246914 0 0 0-79.366321 0z m42.477037 13.906173a6.320988 6.320988 0 0 1 2.869728 2.88237l72.071902 146.014815a18.962963 18.962963 0 0 0 14.285432 10.379062l161.147259 23.42558a6.320988 6.320988 0 0 1 3.501827 10.783605l-116.60958 113.651358a18.962963 18.962963 0 0 0-5.448692 16.801185l27.521581 160.489877a6.320988 6.320988 0 0 1-9.165432 6.662321l-144.143803-75.776a18.962963 18.962963 0 0 0-17.648197 0L352.711111 770.098568a6.320988 6.320988 0 0 1-9.165432-6.662321l27.52158-160.489877a18.962963 18.962963 0 0 0-5.448691-16.788543l-116.60958-113.664a6.320988 6.320988 0 0 1 3.501827-10.783605l161.147259-23.42558a18.962963 18.962963 0 0 0 14.285432-10.36642l72.059259-146.027457a6.320988 6.320988 0 0 1 7.408198-3.286913l1.061926 0.417185z" fill="#6F6D6D" p-id="1439"></path></svg>